<svg width="18" height="17" viewBox="0 0 18 17" fill="none" xmlns="http://www.w3.org/2000/svg">
<path d="M6.81809 16C7.21975 16 7.54537 15.6802 7.54537 15.2857C7.54537 14.8912 7.21975 14.5714 6.81809 14.5714C6.41643 14.5714 6.09082 14.8912 6.09082 15.2857C6.09082 15.6802 6.41643 16 6.81809 16Z" fill="#BFC2C8" stroke="#BFC2C8" stroke-width="1.5" stroke-linecap="round" stroke-linejoin="round"/>
<path d="M14.8181 16C15.2198 16 15.5454 15.6802 15.5454 15.2857C15.5454 14.8912 15.2198 14.5714 14.8181 14.5714C14.4164 14.5714 14.0908 14.8912 14.0908 15.2857C14.0908 15.6802 14.4164 16 14.8181 16Z" fill="#BFC2C8" stroke="#BFC2C8" stroke-width="1.5" stroke-linecap="round" stroke-linejoin="round"/>
<path d="M1 1H3.90909L5.85818 10.5643C5.92469 10.8932 6.10684 11.1886 6.37276 11.3988C6.63868 11.609 6.97142 11.7207 7.31273 11.7143H14.3818C14.7231 11.7207 15.0559 11.609 15.3218 11.3988C15.5877 11.1886 15.7699 10.8932 15.8364 10.5643L17 4.57143H4.63636" stroke="#BFC2C8" stroke-width="2" stroke-linecap="round" stroke-linejoin="round"/>
</svg>
