<svg width="13" height="12" viewBox="0 0 13 12" fill="none" xmlns="http://www.w3.org/2000/svg">
<path d="M6.02229 1.04591C6.16748 0.576068 6.83252 0.576067 6.97771 1.04591L7.92555 4.11318C7.99029 4.32268 8.18398 4.46556 8.40326 4.46556H11.5219C12.0001 4.46556 12.2054 5.07255 11.8254 5.36289L9.25993 7.32272C9.09342 7.44992 9.02388 7.66746 9.08575 7.86767L10.0554 11.0054C10.1991 11.4705 9.66097 11.8459 9.27412 11.5504L6.80353 9.66299C6.62433 9.5261 6.37567 9.5261 6.19647 9.66299L3.72588 11.5504C3.33903 11.8459 2.80091 11.4705 2.94463 11.0054L3.91425 7.86767C3.97611 7.66746 3.90658 7.44992 3.74007 7.32272L1.17462 5.36289C0.794561 5.07255 0.999881 4.46556 1.47815 4.46556H4.59674C4.81602 4.46556 5.00971 4.32268 5.07445 4.11318L6.02229 1.04591Z" fill="#FFBB56"/>
</svg>
